<svg xmlns="http://www.w3.org/2000/svg" width="1264" height="232.075" viewBox="0 0 1265 232.075">
  <g id="Group_73" data-name="Group 73" transform="translate(-328 -475.518)">
    <g id="settings_brightness-24px" transform="translate(977.531 386.185) rotate(90)">
      <path id="Path_204" data-name="Path 204" d="M0,0H232.075V195.062H0Z" transform="translate(89.333)" fill="none"/>
      <path id="Path_205" data-name="Path 205" d="M209.159,0H20.916A21.023,21.023,0,0,0,0,21.007V168.055a21.023,21.023,0,0,0,20.916,21.007H209.159a21.023,21.023,0,0,0,20.916-21.007V21.007A21.023,21.023,0,0,0,209.159,0Zm0,168.16H20.916V20.9H209.159ZM73.206,136.544H99.351L115.038,152.3l15.687-15.755h26.145V110.286l15.687-15.755L156.869,78.776V52.517H130.724L115.038,36.762,99.351,52.517H73.206V78.776L57.519,94.531l15.687,15.755Zm41.832-73.524a31.511,31.511,0,0,1,0,63.021Z" transform="translate(90.333 3)" fill="#ff6d05"/>
    </g>
    <text id="Fantasy_Delve_Games" data-name="Fantasy Delve Games" transform="translate(328 633)" fill="#fff" font-size="124" font-family="RobotoSlab-Bold, Roboto Slab" font-weight="700"><tspan x="0" y="0">Fantasy Delve Games</tspan></text>
  </g>
</svg>
