<svg xmlns="http://www.w3.org/2000/svg" width="60" height="39" viewBox="0 0 60 44.105">
  <g id="Group_77" data-name="Group 77" transform="translate(-336 -10.948)">
    <path id="Path_205" data-name="Path 205" d="M40.1,0H4.01A4.187,4.187,0,0,0,0,4.322V34.58A4.187,4.187,0,0,0,4.01,38.9H40.1A4.187,4.187,0,0,0,44.1,34.58V4.322A4.187,4.187,0,0,0,40.1,0Zm0,34.6H4.01V4.3H40.1ZM14.033,28.1h5.012l3.007,3.242L25.059,28.1h5.012v-5.4l3.007-3.242-3.007-3.242v-5.4H25.059L22.052,7.564l-3.007,3.242H14.033v5.4l-3.007,3.242,3.007,3.242Zm8.019-15.129a6.254,6.254,0,0,1,6.014,6.484,6.254,6.254,0,0,1-6.014,6.484Z" transform="translate(385.451 10.948) rotate(90)" fill="#ff6d05"/>
    <text id="F_D_G" data-name="F D G" transform="translate(336 41)" fill="#fff" font-size="24" font-family="RobotoSlab-Bold, Roboto Slab" font-weight="700"><tspan x="0" y="0">F D G</tspan></text>
  </g>
</svg>
