<svg xmlns="http://www.w3.org/2000/svg" width="32" height="25.956" viewBox="0 0 32 25.956">
  <path id="Path_2" data-name="Path 2" d="M48.133,27.956C60.222,27.956,66.8,18,66.8,9.289V8.4A14.451,14.451,0,0,0,70,5.022a14.758,14.758,0,0,1-3.733,1.067,6.917,6.917,0,0,0,2.844-3.556,16.306,16.306,0,0,1-4.089,1.6A6.349,6.349,0,0,0,60.222,2a6.679,6.679,0,0,0-6.578,6.578A3.466,3.466,0,0,0,53.822,10,18.38,18.38,0,0,1,40.311,3.067a6.808,6.808,0,0,0-.889,3.378,7.063,7.063,0,0,0,2.844,5.511,5.993,5.993,0,0,1-3.022-.889h0a6.5,6.5,0,0,0,5.333,6.4,5.481,5.481,0,0,1-1.778.178,3.025,3.025,0,0,1-1.244-.178,6.735,6.735,0,0,0,6.222,4.622A13.423,13.423,0,0,1,39.6,24.933a4.922,4.922,0,0,1-1.6-.178,16.78,16.78,0,0,0,10.133,3.2" transform="translate(-38 -2)" fill="#05c5ff" fill-rule="evenodd"/>
</svg>
